<?xml version="1.0" encoding="UTF-8" standalone="no"?>
<!-- Created with Inkscape (http://www.inkscape.org/) -->

<svg
   xmlns:dc="http://purl.org/dc/elements/1.1/"
   xmlns:cc="http://creativecommons.org/ns#"
   xmlns:rdf="http://www.w3.org/1999/02/22-rdf-syntax-ns#"
   xmlns:svg="http://www.w3.org/2000/svg"
   xmlns="http://www.w3.org/2000/svg"
   xmlns:sodipodi="http://sodipodi.sourceforge.net/DTD/sodipodi-0.dtd"
   xmlns:inkscape="http://www.inkscape.org/namespaces/inkscape"
   id="svg2"
   version="1.1"
   inkscape:version="0.48.2 r9819"
   width="1066.5354"
   height="1502.3623"
   xml:space="preserve"
   sodipodi:docname="A3_3.svg"><metadata
     id="metadata8"><rdf:RDF><cc:Work
         rdf:about=""><dc:format>image/svg+xml</dc:format><dc:type
           rdf:resource="http://purl.org/dc/dcmitype/StillImage" /></cc:Work></rdf:RDF></metadata><defs
     id="defs6" /><sodipodi:namedview
     pagecolor="#63aa38"
     bordercolor="#ffffff"
     borderopacity="1"
     objecttolerance="10"
     gridtolerance="10"
     guidetolerance="10"
     inkscape:pageopacity="1"
     inkscape:pageshadow="2"
     inkscape:window-width="1920"
     inkscape:window-height="1032"
     id="namedview4"
     showgrid="true"
     showguides="true"
     inkscape:guide-bbox="true"
     inkscape:zoom="0.36899997"
     inkscape:cx="44.161993"
     inkscape:cy="574.82251"
     inkscape:window-x="0"
     inkscape:window-y="22"
     inkscape:window-maximized="1"
     inkscape:current-layer="layer2"
     units="mm"
     fit-margin-top="0"
     fit-margin-left="0"
     fit-margin-right="0"
     fit-margin-bottom="0"
     borderlayer="true"
     inkscape:showpageshadow="false" /><g
     id="g10"
     inkscape:groupmode="layer"
     inkscape:label="Bg"
     transform="matrix(1.25,0,0,-1.25,0,1502.3623)"
     style="display:inline"><path
   d="m 0,0 853.22835,0 0,1201.8898 L 0,1201.8898 0,0 z"
   style="fill:#63aa38;fill-opacity:1;fill-rule:nonzero;stroke:none"
   id="path12"
   inkscape:connector-curvature="0" />



<flowRoot
   xml:space="preserve"
   id="flowRoot3344"
   style="font-size:40px;font-style:normal;font-variant:normal;font-weight:normal;font-stretch:normal;line-height:125%;letter-spacing:0px;word-spacing:0px;fill:#000000;fill-opacity:1;stroke:none;font-family:Open Sans;-inkscape-font-specification:Open Sans"><flowRegion
     id="flowRegion3346"><rect
       id="rect3348"
       width="129.30821"
       height="61.272202"
       x="472.67126"
       y="1185.6569" /></flowRegion><flowPara
     id="flowPara3350" /></flowRoot></g><g
     inkscape:groupmode="layer"
     id="layer1"
     inkscape:label="Icons and Text"
     style="display:inline"><g
       transform="matrix(1.25,0,0,-1.25,0,1502.3623)"
       style="display:inline"
       id="g3888"><g
         transform="translate(483.0646,421.6661)"
         id="g118"><path
           inkscape:connector-curvature="0"
           id="path120"
           style="fill:#ffffff;fill-opacity:1;fill-rule:evenodd;stroke:none"
           d="M 0,0 C 0,11.541 -3.469,22.264 -9.394,31.22 -24.651,39.786 -43.371,37.6 -56.68,24.291 -71.598,9.372 -93.313,8.374 -109.314,20.944 -111.897,14.459 -113.359,7.406 -113.359,0 c 0,-31.303 25.376,-56.679 56.679,-56.679 C -25.376,-56.679 0,-31.303 0,0 m -56.68,-72.874 c 40.248,0 72.874,32.627 72.874,72.874 0,37.507 -28.344,68.366 -64.776,72.399 l 0,65.251 8.097,0 c 4.472,0 8.097,3.625 8.097,8.097 0,4.472 -3.625,8.097 -8.097,8.097 l -32.389,0 c -4.471,0 -8.097,-3.625 -8.097,-8.097 0,-4.472 3.626,-8.097 8.097,-8.097 l 8.097,0 0,-65.251 C -101.209,68.366 -129.553,37.507 -129.553,0 c 0,-40.247 32.627,-72.874 72.873,-72.874 m 0,-16.194 c -49.19,0 -89.067,39.877 -89.067,89.068 0,40.758 27.408,75.043 64.776,85.628 l 0,35.828 8.097,0 c -13.415,0 -24.291,10.876 -24.291,24.291 0,13.416 10.876,24.291 24.291,24.291 l 32.389,0 c 13.415,0 24.291,-10.875 24.291,-24.291 0,-13.415 -10.876,-24.291 -24.291,-24.291 l 8.097,0 0,-35.828 C 4.98,75.043 32.388,40.758 32.388,0 c 0,-49.191 -39.877,-89.068 -89.068,-89.068" /></g><g
         transform="translate(468.782,720.8483)"
         id="g122"><path
           inkscape:connector-curvature="0"
           id="path124"
           style="fill:#ffffff;fill-opacity:1;fill-rule:nonzero;stroke:none"
           d="m 0,0 c -26.437,-29.158 -71.505,-31.363 -100.663,-4.926 -29.157,26.437 -31.363,71.505 -4.926,100.663 26.437,29.157 71.506,31.363 100.663,4.926 6.302,-5.714 11.342,-12.299 15.109,-19.405 -16.519,3.406 -29.363,2.613 -44.081,-2.785 -5.648,-2.078 -17.03,-8.29 -23.822,-18.465 -2.979,-4.449 -5.223,-9.723 -6.5,-15.264 -2.895,-12.503 0.172,-26.325 8.191,-36.947 11.311,-14.997 27.056,-19.872 42.112,-13.056 10.378,4.714 19.87,17.972 16.987,33.278 -2.336,12.456 -11.261,20.066 -19.079,22.077 -6.806,1.735 -13.495,0.157 -18.364,-4.335 -8.615,-7.967 -6.457,-19.658 -1.592,-25.052 1.42,-1.571 3.11,-2.899 5.296,-4.153 0.762,-0.453 1.536,-0.84 2.536,-1.127 l 0.311,-0.081 0.194,-0.063 -0.064,0.029 c 1.942,-0.485 3.978,0.005 5.44,1.327 0.4,0.361 0.749,0.791 1.057,1.268 1.624,2.622 0.991,6.009 -1.466,7.894 l -0.337,0.247 -0.511,0.289 -0.743,0.419 c -1.431,0.96 -2.3,1.879 -2.481,2.065 -0.532,0.671 -2.413,4.62 0.991,7.698 l 0.041,0.038 c 1.254,1.12 2.583,1.409 3.309,1.564 2.382,0.414 6.263,-0.887 9.18,-4.748 3.839,-5.046 4.488,-10.598 1.979,-16.938 -2.334,-5.895 -8.008,-10.037 -14.466,-10.542 -6.405,-0.494 -12.696,3.247 -18.189,10.832 -5.53,7.65 -6.849,17.154 -3.593,26.088 3.175,8.733 10.239,15.45 18.453,17.53 C -9.355,65.325 2.541,51.896 7.879,43.459 11.677,37.457 13.693,30.27 13.929,22.786 10.858,14.61 6.223,6.864 0,0 m 44.379,-34.293 c 0,0 -28.367,27.419 -29.129,27.949 26.325,32.718 20.627,91.434 -9.515,118.764 -35.651,32.325 -90.756,29.628 -123.081,-6.023 -32.325,-35.651 -29.628,-90.756 6.023,-123.081 30.143,-27.329 81.787,-32.806 113.912,-2.792 0.603,-0.707 29.297,-28.093 29.297,-28.093 8.913,-8.081 11.829,-13.844 20.066,-5.075 6.892,7.337 1.788,9.251 -7.573,18.351" /></g><g
         transform="translate(468.5681,971.463)"
         id="g126"><path
           inkscape:connector-curvature="0"
           id="path128"
           style="fill:#ffffff;fill-opacity:1;fill-rule:nonzero;stroke:none"
           d="m 0,0 -84.366,0 c -4.387,0 -7.944,3.557 -7.944,7.944 0,4.387 3.557,7.944 7.944,7.944 l 84.366,0 c 4.388,0 7.944,-3.557 7.944,-7.944 C 7.944,3.557 4.388,0 0,0 m -34.5,143.961 0,-89.909 48.559,29.89 c 3.735,2.3 8.629,1.135 10.929,-2.601 2.3,-3.736 1.136,-8.629 -2.601,-10.929 L -37.662,33.45 c -1.298,-0.799 -2.736,-1.18 -4.156,-1.18 -0.122,0 -0.242,0.017 -0.363,0.022 -0.121,-0.005 -0.241,-0.022 -0.363,-0.022 -1.42,0 -2.858,0.381 -4.156,1.18 l -60.048,36.962 c -3.737,2.3 -4.901,7.193 -2.601,10.929 2.3,3.736 7.193,4.901 10.929,2.601 l 48.554,-29.887 0,89.906 c -43.586,-3.885 -77.756,-40.495 -77.756,-85.091 0,-47.187 38.252,-85.439 85.439,-85.439 47.187,0 85.439,38.252 85.439,85.439 0,44.596 -34.17,81.206 -77.756,85.091" /></g></g><text
       xml:space="preserve"
       style="font-size:35.20000076px;font-style:normal;font-variant:normal;font-weight:600;font-stretch:normal;text-align:center;line-height:114.99999762%;letter-spacing:0px;word-spacing:0px;writing-mode:lr-tb;text-anchor:middle;fill:#ffffff;fill-opacity:1;stroke:none;display:inline;font-family:Source Sans Pro;-inkscape-font-specification:Source Sans Pro Semi-Bold"
       x="425.80331"
       y="-239.99335"
       id="text3330"
       sodipodi:linespacing="115%"
       transform="matrix(1.25,0,0,1.25,0,1502.3623)"><tspan
         sodipodi:role="line"
         id="tspan3332"
         x="426.01932"
         y="-239.99335"
         dx="0 0"
         style="font-size:35.20000076px;font-style:normal;font-variant:normal;font-weight:600;font-stretch:normal;text-align:center;line-height:114.99999762%;letter-spacing:0.43200001px;writing-mode:lr-tb;text-anchor:middle;fill:#ffffff;font-family:Source Sans Pro;-inkscape-font-specification:Source Sans Pro Semi-Bold">GET IT!</tspan><tspan
         sodipodi:role="line"
         x="426.01932"
         y="-199.51335"
         id="tspan3334"
         style="font-size:35.20000076px;font-style:normal;font-variant:normal;font-weight:600;font-stretch:normal;text-align:center;line-height:114.99999762%;letter-spacing:0.43200001px;writing-mode:lr-tb;text-anchor:middle;fill:#ffffff;font-family:Source Sans Pro;-inkscape-font-specification:Source Sans Pro Semi-Bold">DISCOVER IT!</tspan><tspan
         sodipodi:role="line"
         x="426.01932"
         y="-159.03334"
         id="tspan3336"
         style="font-size:35.20000076px;font-style:normal;font-variant:normal;font-weight:600;font-stretch:normal;text-align:center;line-height:114.99999762%;letter-spacing:0.43200001px;writing-mode:lr-tb;text-anchor:middle;fill:#ffffff;font-family:Source Sans Pro;-inkscape-font-specification:Source Sans Pro Semi-Bold">CREATE IT!</tspan></text>
</g><g
     inkscape:groupmode="layer"
     id="layer2"
     inkscape:label="Logo and URL"
     style="display:inline"><g
       transform="matrix(1.25,0,0,-1.25,0,1502.3623)"
       style="display:inline"
       id="g3223"><g
         transform="translate(790.6551,93.8841)"
         id="g130"><path
           inkscape:connector-curvature="0"
           id="path132"
           style="fill:#ffffff;fill-opacity:1;fill-rule:nonzero;stroke:none"
           d="M 0,0 C 0.053,1.425 0.649,2.748 1.692,3.718 2.734,4.692 4.095,5.195 5.521,5.149 8.462,5.044 10.773,2.562 10.672,-0.376 10.616,-1.802 10.02,-3.124 8.98,-4.091 7.938,-5.071 6.581,-5.574 5.148,-5.526 2.21,-5.417 -0.098,-2.94 0,0 z m 14.267,-5.255 c 0.242,0.161 0.42,0.293 0.495,0.323 l 0.081,0.126 c -0.205,1.29 -2.127,7.542 -3.581,9.045 -0.4,0.41 -0.721,0.814 -1.371,1.194 -5.259,3.064 -17.736,4.914 -18.321,4.998 l -0.099,-0.027 -0.037,-0.09 c 0,0 -0.049,-2.586 -0.056,-2.875 -1.274,0.428 -10.538,3.421 -19.221,3.722 -7.365,0.259 -18.089,1.211 -32.3,-7.527 l -0.421,-0.262 c -6.686,-4.171 -11.302,-9.314 -13.715,-15.288 -0.757,-1.881 -1.775,-6.123 -0.766,-10.115 0.435,-1.745 1.245,-3.499 2.337,-5.068 2.469,-3.547 6.612,-5.9 11.073,-6.298 6.299,-0.563 11.068,2.266 12.765,7.563 1.166,3.655 0,9.018 -4.472,11.754 -3.637,2.227 -7.547,1.721 -9.816,0.22 -1.968,-1.305 -3.082,-3.333 -3.063,-5.56 0.046,-3.95 3.448,-6.05 5.895,-6.056 0.711,0 1.425,0.124 2.23,0.386 0.286,0.087 0.556,0.195 0.853,0.379 l 0.093,0.055 0.058,0.039 -0.019,-0.012 c 0.557,0.38 0.893,0.998 0.893,1.661 0,0.18 -0.025,0.364 -0.077,0.548 -0.289,1.001 -1.277,1.606 -2.302,1.419 l -0.138,-0.033 -0.187,-0.057 -0.272,-0.093 c -0.563,-0.139 -0.985,-0.151 -1.075,-0.154 -0.287,0.019 -1.695,0.44 -1.695,1.983 l 0,0.021 c 0,0.566 0.227,0.964 0.352,1.181 0.439,0.687 1.638,1.361 3.259,1.22 2.127,-0.184 3.661,-1.274 4.676,-3.332 0.943,-1.913 0.696,-4.267 -0.635,-5.99 -1.323,-1.708 -3.678,-2.434 -6.81,-2.097 -3.158,0.349 -5.827,2.166 -7.323,4.995 -1.463,2.766 -1.543,6.044 -0.206,8.563 3.196,6.035 9.235,5.972 12.546,5.4 4.899,-0.85 10.473,-5.369 12.45,-10.588 0.319,-0.832 0.482,-1.491 0.624,-2.094 l 0.213,-0.901 5.536,-2.703 0.072,-0.054 0.134,0.012 0.025,0.159 c -0.035,0.124 -0.115,0.238 -0.243,1.787 -0.105,1.375 -0.319,5.138 1.575,7.003 0.736,0.729 1.857,1.379 2.742,1.587 3.628,0.887 7.882,0.275 11.904,-4.381 2.083,-2.404 3.098,-3.501 3.607,-3.992 l 0.178,-0.16 0.209,-0.156 c 0.167,-0.091 6.917,-3.201 6.917,-3.201 l 0.139,0.034 0.002,0.144 c -0.045,0.051 -4.278,5.523 -3.525,10.028 0.594,3.588 3.45,3.263 7.4,2.817 1.29,-0.151 2.758,-0.319 4.277,-0.353 4.244,-0.027 8.815,0.757 11.633,1.989 1.822,0.792 2.986,1.32 3.714,1.982 0.262,0.218 0.398,0.57 0.54,0.95 l 0.099,0.25 c 0.118,0.308 0.291,0.956 0.367,1.311 0.031,0.156 0.049,0.321 -0.062,0.409 l -0.39,-0.072 C 12.794,-8.332 9.702,-9.742 6.811,-9.802 3.221,-9.874 -4.006,-6.192 -4.76,-5.8 l -0.072,0.084 c -0.178,0.433 -1.263,2.998 -1.495,3.54 5.204,-3.429 9.52,-5.324 12.824,-5.616 3.678,-0.328 6.545,1.679 7.77,2.537 z m -8.182,4.761 c -0.913,0 -1.651,0.494 -1.651,1.1 0,0.611 0.738,1.103 1.651,1.103 0.913,0 1.653,-0.492 1.653,-1.103 C 7.737,0 6.997,-0.494 6.085,-0.494 M 5.476,3.577 C 4.478,3.613 3.532,3.261 2.809,2.583 2.086,1.905 1.66,0.986 1.63,-0.008 c -0.069,-2.056 1.54,-3.785 3.59,-3.86 0.997,-0.03 1.948,0.322 2.675,1 0.726,0.681 1.144,1.6 1.176,2.591 0.069,2.055 -1.54,3.781 -3.595,3.854 z" /></g><g
         transform="translate(751.874,63.0188)"
         id="g134"><path
           inkscape:connector-curvature="0"
           id="path136"
           style="fill:#ffffff;fill-opacity:1;fill-rule:nonzero;stroke:none"
           d="m 0,0 c -2.345,0 -3.635,-1.983 -3.635,-3.354 l 0,-1.759 c 0,-2.019 1.649,-3.27 3.178,-3.27 l 5.37,0 c 0.676,0 0.818,-0.443 0.818,-0.817 l 0,-1.135 c 0,-0.121 -0.025,-1.212 -0.818,-1.212 l -7.323,0 c -0.728,0 -1.254,-0.506 -1.254,-1.199 l 0,-0.314 c 0,-0.69 0.526,-1.193 1.254,-1.193 l 7.721,0 c 2.018,0 3.32,1.404 3.32,3.58 l 0,1.898 c 0,2.043 -1.468,2.956 -2.925,2.956 l -5.283,0 c -0.795,0 -1.155,0.597 -1.155,1.018 l 0,1.049 c 0,0.66 0.441,1.043 1.212,1.043 l 5.848,0 c 0.717,0 1.257,0.515 1.257,1.196 l 0,0.313 C 7.585,-0.516 7.036,0 6.304,0 L 0,0 z" /></g><g
         transform="translate(773.8287,63.0188)"
         id="g138"><path
           inkscape:connector-curvature="0"
           id="path140"
           style="fill:#ffffff;fill-opacity:1;fill-rule:nonzero;stroke:none"
           d="m 0,0 c -0.693,0 -1.252,-0.563 -1.252,-1.257 l 0,-8.991 c 0,-0.72 -0.588,-1.299 -1.299,-1.299 l -4.081,0 c -0.714,0 -1.299,0.579 -1.299,1.299 l 0,8.991 C -7.931,-0.563 -8.494,0 -9.187,0 l -0.395,0 c -0.703,0 -1.256,-0.555 -1.256,-1.257 l 0,-9.331 c 0,-2.172 1.709,-3.748 4.064,-3.748 l 4.365,0 c 2.351,0 4.06,1.575 4.06,3.748 l 0,9.331 C 1.651,-0.555 1.1,0 0.397,0 L 0,0 z" /></g><g
         transform="translate(781.6426,63.0188)"
         id="g142"><path
           inkscape:connector-curvature="0"
           id="path144"
           style="fill:#ffffff;fill-opacity:1;fill-rule:nonzero;stroke:none"
           d="m 0,0 c -2.344,0 -3.638,-1.983 -3.638,-3.354 l 0,-1.759 c 0,-2.019 1.653,-3.27 3.183,-3.27 l 5.368,0 c 0.677,0 0.819,-0.443 0.819,-0.817 l 0,-1.135 c 0,-0.121 -0.024,-1.212 -0.819,-1.212 l -7.327,0 c -0.724,0 -1.253,-0.506 -1.253,-1.199 l 0,-0.314 c 0,-0.69 0.529,-1.193 1.253,-1.193 l 7.724,0 c 2.019,0 3.327,1.404 3.327,3.58 l 0,1.898 c 0,2.043 -1.472,2.956 -2.929,2.956 l -5.283,0 c -0.798,0 -1.157,0.597 -1.157,1.018 l 0,1.049 c 0,0.66 0.441,1.043 1.213,1.043 l 5.851,0 c 0.716,0 1.253,0.515 1.253,1.196 l 0,0.313 C 7.585,-0.516 7.037,0 6.301,0 L 0,0 z" /></g><g
         transform="translate(793.9861,63.0188)"
         id="g146"><path
           inkscape:connector-curvature="0"
           id="path148"
           style="fill:#ffffff;fill-opacity:1;fill-rule:nonzero;stroke:none"
           d="m 0,0 c -0.696,0 -1.222,-0.516 -1.222,-1.2 l 0,-11.859 c 0,-0.681 0.514,-1.193 1.194,-1.193 l 9.451,0 c 0.728,0 1.254,0.503 1.254,1.193 l 0,0.314 c 0,0.693 -0.526,1.199 -1.254,1.199 l -7.74,0 0,3.019 5.672,0 c 0.726,0 1.253,0.51 1.253,1.2 l 0,0.313 c 0,0.694 -0.527,1.197 -1.253,1.197 l -5.672,0 0,3.109 7.347,0 c 0.725,0 1.253,0.5 1.253,1.197 l 0,0.313 c 0,0.693 -0.528,1.2 -1.253,1.2 L 0,0.002 0,0 z" /></g><g
         transform="translate(713.0262,51.0263)"
         id="g150"><path
           inkscape:connector-curvature="0"
           id="path152"
           style="fill:#ffffff;fill-opacity:1;fill-rule:nonzero;stroke:none"
           d="m 0,0 0,4.083 c 0,0.479 0.393,0.87 0.874,0.87 l 2.254,0 c 0.47,0 0.87,-0.4 0.87,-0.87 L 3.998,0 c 0,-0.482 -0.39,-0.874 -0.87,-0.874 l -2.271,0 C 0.375,-0.874 0,-0.49 0,0 m 0.626,6.352 c -1.185,0 -2.149,-0.922 -2.149,-2.058 l 0,-4.472 c 0,-1.154 0.933,-2.094 2.077,-2.094 l 2.892,0 c 1.144,0 2.076,0.94 2.076,2.094 l 0,4.472 c 0,1.135 -0.964,2.058 -2.148,2.058 l -2.748,0 z" /></g><g
         transform="translate(722.203,51.1135)"
         id="g154"><path
           inkscape:connector-curvature="0"
           id="path156"
           style="fill:#ffffff;fill-opacity:1;fill-rule:nonzero;stroke:none"
           d="m 0,0 0,3.905 c 0,0.54 0.422,0.961 0.961,0.961 l 2.112,0 c 0.54,0 0.961,-0.422 0.961,-0.961 L 4.034,0 c 0,-0.53 -0.432,-0.961 -0.961,-0.961 l -2.112,0 C 0.432,-0.961 0,-0.53 0,0 M 2.893,6.316 C 2.059,6.316 1.431,6.018 0.926,5.774 0.618,5.627 0.352,5.499 0.145,5.499 c -0.093,0 -0.173,0.043 -0.215,0.112 l -0.193,0.368 c -0.048,0.096 -0.241,0.285 -0.479,0.285 l -0.286,0 c -0.275,0 -0.494,-0.246 -0.494,-0.548 l 0,-11.341 c 0,-0.356 0.28,-0.636 0.635,-0.636 l 0.248,0 c 0.352,0 0.639,0.284 0.639,0.636 l 0,3.763 c 0,0.112 0.072,0.232 0.145,0.232 0.207,0 0.473,-0.121 0.781,-0.262 0.505,-0.232 1.133,-0.518 1.967,-0.518 l 0.267,0 c 1.477,0 2.395,0.844 2.395,2.2 l 0,4.329 c 0,1.335 -0.938,2.197 -2.395,2.197 l -0.267,0 z" /></g><g
         transform="translate(731.4122,55.124)"
         id="g158"><path
           inkscape:connector-curvature="0"
           id="path160"
           style="fill:#ffffff;fill-opacity:1;fill-rule:nonzero;stroke:none"
           d="m 0,0 c 0,0.479 0.377,0.856 0.857,0.856 l 2.323,0 C 3.659,0.856 4.032,0.479 4.032,0 l 0,-1.386 -4.033,0 C 0,-1.205 0,0 0,0 z m 0.625,2.254 c -1.184,0 -2.145,-0.922 -2.145,-2.058 l 0,-4.438 c 0,-1.151 0.934,-2.127 2.036,-2.127 l 2.985,0 c 0.368,0 0.635,0.256 0.635,0.603 l 0,0.195 c 0,0.35 -0.267,0.6 -0.635,0.6 l -2.452,0 c -0.687,0 -1.05,0.338 -1.05,0.98 l 0,1.298 4.423,0 c 0.712,0 1.132,0.434 1.132,1.169 l 0,1.721 c 0,1.136 -0.963,2.058 -2.142,2.058 l -2.787,0 0,-10e-4 z" /></g><g
         transform="translate(743.1104,57.4297)"
         id="g162"><path
           inkscape:connector-curvature="0"
           id="path164"
           style="fill:#ffffff;fill-opacity:1;fill-rule:nonzero;stroke:none"
           d="m 0,0 c -0.831,0 -1.459,-0.298 -1.965,-0.54 -0.315,-0.148 -0.584,-0.277 -0.804,-0.277 -0.096,0 -0.135,0.012 -0.21,0.142 l -0.175,0.319 c -0.101,0.202 -0.272,0.304 -0.502,0.304 l -0.246,0 c -0.297,0 -0.513,-0.231 -0.513,-0.548 l 0,-7.439 c 0,-0.353 0.278,-0.636 0.637,-0.636 l 0.246,0 c 0.352,0 0.64,0.287 0.64,0.636 l 0,5.628 c 0,0.528 0.43,0.961 0.958,0.961 l 2.113,0 c 0.529,0 0.96,-0.433 0.96,-0.961 l 0,-5.628 c 0,-0.353 0.28,-0.636 0.636,-0.636 l 0.248,0 c 0.352,0 0.639,0.287 0.639,0.636 l 0,5.842 C 2.662,-0.862 1.723,0 0.265,0 L 0,0 z" /></g><g
         transform="translate(806.5441,50.5036)"
         id="g166"><path
           inkscape:connector-curvature="0"
           id="path168"
           style="fill:#ffffff;fill-opacity:1;fill-rule:nonzero;stroke:none"
           d="M 0,0 0.152,0 C 0.324,0 0.471,0.062 0.471,0.225 0.471,0.34 0.387,0.456 0.152,0.456 0.083,0.456 0.036,0.45 0,0.444 L 0,0 z m 0,-0.728 -0.209,0 0,1.314 c 0.11,0.015 0.214,0.031 0.371,0.031 0.199,0 0.33,-0.042 0.408,-0.099 0.079,-0.057 0.121,-0.146 0.121,-0.272 0,-0.173 -0.115,-0.277 -0.256,-0.319 l 0,-0.012 c 0.115,-0.02 0.193,-0.125 0.22,-0.319 0.031,-0.204 0.062,-0.283 0.083,-0.324 l -0.22,0 c -0.031,0.041 -0.062,0.162 -0.088,0.335 -0.032,0.167 -0.116,0.23 -0.283,0.23 l -0.147,0 0,-0.565 z m 0.22,1.68 c -0.518,0 -0.942,-0.445 -0.942,-0.994 0,-0.56 0.424,-1 0.947,-1 0.523,-0.005 0.942,0.44 0.942,0.994 0,0.555 -0.419,1 -0.942,1 l -0.005,0 z m 0.005,0.183 c 0.644,0 1.156,-0.523 1.156,-1.178 0,-0.664 -0.513,-1.182 -1.161,-1.182 -0.644,0 -1.167,0.518 -1.167,1.182 0,0.654 0.523,1.178 1.167,1.178 l 0.005,0 z" /></g></g><text
       transform="matrix(1.25,0,0,1.25,0,1502.3623)"
       sodipodi:linespacing="125%"
       id="text3245"
       y="-48.922691"
       x="44.184601"
       style="font-size:20px;font-style:normal;font-variant:normal;font-weight:normal;font-stretch:normal;text-align:start;line-height:125%;letter-spacing:0px;word-spacing:0px;writing-mode:lr-tb;text-anchor:start;fill:#ffffff;fill-opacity:1;stroke:none;display:inline;font-family:Open Sans;-inkscape-font-specification:Open Sans"
       xml:space="preserve"><tspan
         y="-48.922691"
         x="44.184601"
         id="tspan3247"
         sodipodi:role="line">www.opensuse.org</tspan></text>
</g></svg>